<svg width="126" height="31" viewBox="0 0 126 31" fill="none" xmlns="http://www.w3.org/2000/svg">
<path d="M8.25298 9.52515C8.2693 9.5266 8.28562 9.52732 8.30159 9.52732C8.57375 9.52732 8.80582 9.31537 8.83101 9.03362C9.00631 7.05881 9.43921 5.54733 9.70854 4.75994C10.2234 5.12452 11.0591 5.76109 11.9856 6.64468C12.2006 6.84904 12.5373 6.83782 12.7378 6.619C12.9387 6.40055 12.9277 6.05694 12.713 5.85223C11.1102 4.32375 9.77844 3.50489 9.72238 3.47053C9.59144 3.39023 9.43282 3.37251 9.28769 3.41917C9.14221 3.46655 9.02334 3.57542 8.96195 3.7172C8.92469 3.80328 8.04362 5.862 7.77075 8.93633C7.74449 9.23435 7.96059 9.49802 8.25298 9.52515Z" fill="#111111"/>
<path d="M27.2292 20.1475C31.2786 15.4843 31.4397 9.00613 31.4447 8.73269C31.4475 8.57247 31.3805 8.41875 31.2616 8.3135C31.1427 8.20789 30.9837 8.16195 30.8287 8.18691C30.652 8.21548 26.4627 8.92547 22.5538 12.1246C22.3245 12.3123 22.2876 12.6537 22.4718 12.8874C22.656 13.121 22.9913 13.1579 23.2202 12.9706C26.0177 10.6811 29.0332 9.73095 30.3358 9.40398C30.179 11.1629 29.4817 15.9161 26.4322 19.4281C23.8741 22.3733 20.5876 23.7618 18.4972 24.347C20.0936 22.2518 21.6454 18.1658 21.6454 13.8976C21.6454 7.48343 17.0849 2.3804 16.8912 2.16629C16.6896 1.94457 16.311 1.94457 16.1095 2.16629C15.915 2.38076 11.3546 7.48379 11.3546 13.8979C11.3546 18.1347 12.8836 22.1936 14.4673 24.3022C12.3702 23.6913 9.11874 22.2977 6.62669 19.4285C3.58427 15.9248 2.88275 11.1683 2.72378 9.40615C4.01399 9.73348 6.98118 10.6811 9.77946 12.9709C10.0087 13.1583 10.344 13.1214 10.5275 12.8877C10.7116 12.6541 10.6751 12.3123 10.4459 12.1249C6.53727 8.92656 2.40513 8.21621 2.23126 8.18763C2.0762 8.16087 1.91687 8.20825 1.79764 8.3135C1.67877 8.41875 1.61135 8.57247 1.61419 8.73306C1.61916 9.00649 1.78026 15.5751 5.82971 20.2383C9.81991 24.8328 15.7593 25.8488 16.5509 25.8488C17.3426 25.8488 23.1712 24.8201 27.2292 20.1475ZM12.4191 13.9884C12.4191 9.07087 15.4104 4.79683 16.5002 3.41989C17.5906 4.79502 20.5805 9.08498 20.5805 14.0111C20.5805 20.2245 17.3568 24.5373 16.5012 24.899C16.5002 24.899 16.4984 24.899 16.497 24.899C15.6407 24.5373 12.4191 20.1992 12.4191 13.9884Z" fill="#111111"/>
<path d="M21.073 6.64431C21.9967 5.76325 22.8341 5.12559 23.35 4.75993C23.619 5.54768 24.0523 7.0588 24.2276 9.03325C24.2528 9.315 24.4848 9.52695 24.757 9.52695C24.773 9.52695 24.7893 9.52623 24.8056 9.52478C25.0983 9.49765 25.3141 9.23398 25.2878 8.93559C25.015 5.86126 24.1342 3.80291 24.0966 3.71647C24.0349 3.57432 23.916 3.46582 23.7709 3.41844C23.625 3.37178 23.4668 3.3895 23.3362 3.4698C23.2801 3.50416 21.9484 4.32301 20.3456 5.8515C20.1309 6.05621 20.1199 6.39981 20.3208 6.61827C20.5219 6.83782 20.8583 6.84939 21.073 6.64431Z" fill="#111111"/>
<path d="M12.6288 25.9063C10.4789 25.1275 7.42793 23.637 5.10229 20.9591C4.81381 20.6267 4.53526 20.273 4.25067 19.8766C4.13251 19.7117 3.93415 19.6299 3.73438 19.6614C1.74265 19.9963 0.375445 20.601 0.318316 20.6264C0.165024 20.6947 0.0525391 20.8325 0.0142162 20.9985C-0.0241068 21.1646 0.0159904 21.3389 0.123153 21.4702C0.243444 21.6174 3.12015 25.0935 7.64474 26.3001C9.21988 26.72 10.519 26.9996 11.7364 27C11.7364 27 11.7364 27 11.7368 27C12.0057 27 12.2669 26.9852 12.5121 26.9566C12.758 26.9277 12.9521 26.7298 12.9801 26.4792C13.0082 26.2285 12.862 25.9909 12.6288 25.9063Z" fill="#111111"/>
<path d="M32.9857 20.9989C32.9474 20.8329 32.8346 20.6951 32.6816 20.6267C32.6242 20.6014 31.2573 19.9967 29.2656 19.6617C29.0665 19.6303 28.8678 19.712 28.7493 19.877C28.4647 20.2734 28.1862 20.6271 27.8977 20.9595C25.5717 23.637 22.5207 25.1275 20.3711 25.9066C20.138 25.9909 19.9925 26.2285 20.0205 26.4792C20.0486 26.7298 20.2423 26.9277 20.4886 26.9566C20.7338 26.9852 20.9946 27 21.2643 27C22.4817 27 23.7804 26.7204 25.3559 26.3001C29.8802 25.0936 32.7572 21.6177 32.8775 21.4702C32.984 21.3392 33.0241 21.1649 32.9857 20.9989Z" fill="#111111"/>
<path d="M42.8503 24.9773C42.2307 24.9773 41.6806 24.8699 41.2001 24.6552C40.7196 24.4405 40.315 24.0977 39.9862 23.627C39.6575 23.1563 39.4141 22.5411 39.256 21.7813C39.0979 21.0216 39.0316 20.1049 39.0569 19.0314H40.1949C40.1949 19.5599 40.2138 20.1091 40.2518 20.6789C40.2897 21.2487 40.3909 21.7689 40.5552 22.2397C40.7196 22.7104 40.9694 23.0944 41.3044 23.3917C41.6395 23.689 42.1042 23.8376 42.6985 23.8376C43.2043 23.8376 43.6342 23.7385 43.9882 23.5403C44.3422 23.3421 44.6299 23.0779 44.8512 22.7475C45.0724 22.4172 45.2274 22.0291 45.3159 21.5831C45.4044 21.1372 45.4487 20.6747 45.4487 20.1958C45.4487 19.6342 45.3696 19.1429 45.2116 18.7217C45.0535 18.3005 44.8449 17.9248 44.5857 17.5945C44.3265 17.2641 44.023 16.971 43.6753 16.715C43.3276 16.4589 42.964 16.2319 42.5847 16.0337C41.9778 15.7198 41.4467 15.4101 40.9915 15.1046C40.5363 14.7991 40.1633 14.4564 39.8725 14.0765C39.5817 13.6966 39.3635 13.2548 39.2181 12.751C39.0727 12.2473 39 11.6321 39 10.9053C39 9.25369 39.3319 8.02333 39.9957 7.21395C40.6596 6.40457 41.6111 6 42.8502 6C43.925 6 44.7753 6.40878 45.4012 7.22634C46.0271 8.04389 46.3401 9.27023 46.3401 10.9053V12.2679H45.278V10.7815C45.278 10.2695 45.2305 9.79458 45.1357 9.35694C45.0409 8.9193 44.8923 8.53523 44.69 8.20493C44.4877 7.87462 44.2316 7.61448 43.9218 7.42453C43.6121 7.23459 43.2422 7.13963 42.8123 7.13963C41.8008 7.13963 41.0768 7.48647 40.6406 8.18015C40.2044 8.87384 40.0052 9.80703 40.0432 10.9797C40.0558 11.4917 40.1285 11.9294 40.2613 12.2927C40.394 12.656 40.5711 12.974 40.7923 13.2465C41.0136 13.5191 41.2792 13.7627 41.5889 13.9774C41.8987 14.1921 42.2433 14.4068 42.6226 14.6215C43.0652 14.8693 43.5046 15.1335 43.9408 15.4143C44.377 15.6951 44.7848 16.0419 45.1642 16.4548C45.5435 16.8842 45.8564 17.3839 46.103 17.9537C46.3496 18.5235 46.4729 19.2296 46.4729 20.0719C46.4729 21.707 46.1536 22.9333 45.515 23.7509C44.8765 24.5685 43.9882 24.9772 42.8502 24.9772L42.8503 24.9773ZM51.5939 24.9773C50.4306 24.9773 49.5296 24.5644 48.8912 23.7386C48.2528 22.9128 47.9334 21.6906 47.9334 20.072V6.17352H48.9576V19.9977C48.9576 20.3941 48.9987 20.8111 49.0808 21.2488C49.163 21.6865 49.3053 22.0829 49.5076 22.438C49.7099 22.793 49.9786 23.0862 50.3137 23.3175C50.6487 23.5487 51.0629 23.6643 51.556 23.6643C52.0997 23.6643 52.5486 23.5611 52.9026 23.3546C53.2566 23.1482 53.5412 22.8633 53.7561 22.4999C53.9711 22.1365 54.1228 21.7071 54.2113 21.2116C54.2998 20.7161 54.3441 20.1876 54.3441 19.6261V6.17352H55.3493V20.072C55.3493 21.7236 55.0427 22.954 54.4294 23.7634C53.8162 24.5728 52.871 24.9773 51.5939 24.9773V24.9773ZM63.3722 20.072C63.3595 20.8978 63.2996 21.6204 63.1921 22.2398C63.0846 22.8591 62.9013 23.3711 62.6421 23.7758C62.3829 24.1804 62.0414 24.4819 61.6179 24.68C61.1943 24.8782 60.66 24.9773 60.0152 24.9773C58.9025 24.9773 58.0933 24.5727 57.5874 23.7634C57.0816 22.9541 56.8288 21.7236 56.8288 20.072V10.9054C56.8288 9.25379 57.0848 8.02343 57.5969 7.21405C58.109 6.40467 58.9847 6.0001 60.2238 6.0001C61.3365 6.0001 62.1332 6.40474 62.6136 7.21405C63.094 8.02336 63.3469 9.25385 63.3723 10.9054L63.3912 12.0451H62.5188L62.4998 10.6082C62.4998 10.1952 62.4682 9.77821 62.405 9.35704C62.3418 8.93587 62.228 8.55187 62.0636 8.20503C61.8992 7.85818 61.6684 7.57743 61.3713 7.36269C61.0742 7.14796 60.679 7.04063 60.1859 7.04063C59.7054 7.04063 59.3039 7.13972 58.9815 7.33792C58.6591 7.53612 58.403 7.80864 58.2133 8.15548C58.0237 8.50232 57.8941 8.9111 57.8245 9.38181C57.755 9.85253 57.7202 10.3604 57.7202 10.9054L57.7581 20.1959C57.7581 21.3355 57.9194 22.2274 58.2418 22.8715C58.5642 23.5156 59.1554 23.8377 60.0152 23.8377C60.5083 23.8377 60.9161 23.751 61.2385 23.5776C61.561 23.4042 61.8138 23.1606 61.9972 22.8467C62.1805 22.5329 62.3101 22.1531 62.386 21.7071C62.4619 21.2612 62.4998 20.7739 62.4998 20.2454L62.5188 18.6351H63.3912L63.3722 20.072ZM68.8156 24.9773C67.6523 24.9773 66.7513 24.5644 66.1129 23.7386C65.4745 22.9128 65.1551 21.6906 65.1551 20.072V6.17352H66.1793V19.9977C66.1793 20.3941 66.2204 20.8111 66.3025 21.2488C66.3847 21.6865 66.527 22.0829 66.7293 22.438C66.9316 22.793 67.2003 23.0862 67.5354 23.3175C67.8704 23.5487 68.2845 23.6643 68.7777 23.6643C69.3214 23.6643 69.7703 23.5611 70.1243 23.3546C70.4783 23.1482 70.7629 22.8633 70.9778 22.4999C71.1927 22.1365 71.3445 21.7071 71.433 21.2116C71.5215 20.7161 71.5658 20.1876 71.5658 19.6261V6.17352H72.571V20.072C72.571 21.7236 72.2644 22.954 71.6511 23.7634C71.0379 24.5728 70.0927 24.9773 68.8156 24.9773V24.9773ZM78.0334 24.9773C77.4138 24.9773 76.8637 24.8699 76.3832 24.6552C75.9027 24.4405 75.4981 24.0977 75.1693 23.627C74.8406 23.1563 74.5972 22.5411 74.4391 21.7813C74.281 21.0216 74.2147 20.1049 74.24 19.0314H75.378C75.378 19.5599 75.3969 20.1091 75.4349 20.6789C75.4728 21.2487 75.574 21.7689 75.7383 22.2397C75.9027 22.7104 76.1525 23.0944 76.4875 23.3917C76.8226 23.689 77.2873 23.8376 77.8816 23.8376C78.3874 23.8376 78.8173 23.7385 79.1713 23.5403C79.5253 23.3421 79.813 23.0779 80.0343 22.7475C80.2555 22.4172 80.4105 22.0291 80.499 21.5831C80.5875 21.1372 80.6317 20.6747 80.6317 20.1958C80.6317 19.6342 80.5527 19.1429 80.3947 18.7217C80.2366 18.3005 80.028 17.9248 79.7688 17.5945C79.5095 17.2641 79.2061 16.971 78.8584 16.715C78.5107 16.4589 78.1471 16.2319 77.7678 16.0337C77.1609 15.7198 76.6298 15.4101 76.1746 15.1046C75.7194 14.7991 75.3464 14.4564 75.0556 14.0765C74.7648 13.6966 74.5466 13.2548 74.4012 12.751C74.2558 12.2473 74.1831 11.6321 74.1831 10.9053C74.1831 9.25369 74.515 8.02333 75.1788 7.21395C75.8427 6.40457 76.7942 6 78.0333 6C79.1081 6 79.9584 6.40878 80.5843 7.22634C81.2102 8.04389 81.5232 9.27023 81.5232 10.9053V12.2679H80.461V10.7815C80.461 10.2695 80.4136 9.79458 80.3188 9.35694C80.224 8.9193 80.0754 8.53523 79.8731 8.20493C79.6708 7.87462 79.4147 7.61448 79.1049 7.42453C78.7952 7.23459 78.4253 7.13963 77.9954 7.13963C76.9838 7.13963 76.2599 7.48647 75.8237 8.18015C75.3875 8.87384 75.1883 9.80703 75.2263 10.9797C75.2389 11.4917 75.3116 11.9294 75.4444 12.2927C75.5771 12.656 75.7542 12.974 75.9754 13.2465C76.1967 13.5191 76.4623 13.7627 76.772 13.9774C77.0818 14.1921 77.4264 14.4068 77.8057 14.6215C78.2483 14.8693 78.6877 15.1335 79.1239 15.4143C79.5601 15.6951 79.9679 16.0419 80.3472 16.4548C80.7266 16.8842 81.0395 17.3839 81.2861 17.9537C81.5327 18.5235 81.6559 19.2296 81.6559 20.0719C81.6559 21.707 81.3367 22.9333 80.6981 23.7509C80.0596 24.5685 79.1713 24.9772 78.0333 24.9772L78.0334 24.9773ZM86.208 24.7544V6.17352H87.2322V23.4165H92.0687V24.7544H86.208ZM100.566 24.7544L99.5226 19.2792H94.8947L93.8516 24.7544H92.9032L96.8293 6.17352H97.6449L101.552 24.7544H100.566V24.7544ZM97.2656 7.33792L95.1223 18.09H99.276L97.2656 7.33792ZM105.232 16.2567V24.7544H104.207V16.2567L100.774 6.17352H101.95L104.7 14.7703L107.489 6.17352H108.665L105.232 16.2567ZM116.327 20.9887C116.239 21.5007 116.109 21.9838 115.938 22.438C115.768 22.8921 115.543 23.2927 115.265 23.6395C114.987 23.9864 114.648 24.2589 114.25 24.4571C113.852 24.6553 113.387 24.7544 112.856 24.7544H109.404V6.17352H112.723C113.684 6.17352 114.49 6.46668 115.142 7.05301C115.793 7.63935 116.213 8.62619 116.403 10.0136C116.441 10.2778 116.472 10.6866 116.498 11.2399C116.523 11.7932 116.542 12.4291 116.555 13.1475C116.567 13.866 116.574 14.6216 116.574 15.4144C116.574 16.2072 116.564 16.967 116.545 17.6936C116.526 18.4203 116.498 19.0769 116.46 19.6632C116.422 20.2496 116.378 20.6914 116.327 20.9887V20.9887ZM112.553 7.43702L110.353 7.43704V23.4166H112.818C113.16 23.4166 113.463 23.3381 113.729 23.1812C113.994 23.0243 114.231 22.8179 114.44 22.5619C114.648 22.3059 114.822 22.021 114.961 21.7072C115.101 21.3933 115.214 21.0878 115.303 20.7905C115.366 20.5758 115.42 20.1876 115.464 19.6261C115.508 19.0646 115.54 18.4245 115.559 17.7061C115.578 16.9876 115.587 16.2238 115.587 15.4144C115.587 14.6051 115.578 13.8454 115.559 13.1352C115.54 12.425 115.511 11.7974 115.474 11.2523C115.436 10.7073 115.391 10.3274 115.341 10.1127C115.265 9.81542 115.164 9.50574 115.037 9.18367C114.911 8.8616 114.743 8.57256 114.535 8.31656C114.326 8.06057 114.06 7.84998 113.738 7.68481C113.416 7.51964 113.021 7.43707 112.553 7.43707L112.553 7.43702ZM125.014 24.7544L123.971 19.2792H119.343L118.3 24.7544H117.351L121.277 6.17352H122.093L126 24.7544H125.014V24.7544ZM121.714 7.33792L119.57 18.09H123.724L121.714 7.33792Z" fill="#111111"/>
</svg>
