<svg width="215" height="45" viewBox="0 0 215 45" fill="none" xmlns="http://www.w3.org/2000/svg">
<path d="M19.7617 0.287563H28.7574V32.4924C28.7574 35.551 27.558 38.3696 25.399 40.5286C23.24 42.6876 20.3614 43.887 17.3028 43.887H11.8454C8.78682 43.887 5.96815 42.6876 3.80916 40.5286C1.65018 38.3696 0.450745 35.551 0.450745 32.4924V28.5942H9.38654V32.4924C9.38654 33.1521 9.62643 33.7518 10.1062 34.2316C10.586 34.7114 11.1857 34.9513 11.8454 34.9513H17.3028C17.9625 34.9513 18.6222 34.6514 19.042 34.2316C19.5218 33.7518 19.7617 33.1521 19.7617 32.4924V0.287563V0.287563ZM27.558 32.4924V1.42703H20.9611V32.4924C20.9611 33.452 20.5413 34.3515 19.8816 35.0112C19.2219 35.7309 18.2624 36.0907 17.3028 36.0907H11.8454C10.8858 36.0907 9.98626 35.7309 9.32657 35.0112C8.60691 34.3515 8.24708 33.452 8.24708 32.4924V29.7337H1.59021V32.4924C1.59021 35.1911 2.6697 37.7699 4.5888 39.749C6.50789 41.6681 9.14665 42.7476 11.8454 42.7476H17.3028C20.0615 42.7476 22.6403 41.6681 24.5594 39.749C26.5385 37.7699 27.558 35.1911 27.558 32.4924ZM39.0546 0.287563H47.9904V43.887H39.0546V0.287563ZM46.8509 42.7476V1.42703H40.194V42.7476H46.8509ZM86.5942 13.4214H77.6584V11.6822C77.6584 10.3628 76.5189 9.22336 75.1996 9.22336H69.7421C68.3628 9.22336 67.2833 10.3628 67.2833 11.6822V32.4924C67.2833 33.8118 68.3628 34.9513 69.7421 34.9513H75.1996C76.5189 34.9513 77.6584 33.8118 77.6584 32.4924V26.5552H72.4409V17.6194H86.5942V32.4924C86.5942 35.551 85.3948 38.3696 83.2358 40.5286C81.1368 42.6876 78.2581 43.887 75.1996 43.887H69.7421C66.6836 43.887 63.8049 42.6876 61.6459 40.5286C59.487 38.3696 58.2875 35.551 58.2875 32.4924V11.6822C58.2875 5.44514 63.5051 0.287563 69.7421 0.287563H75.1996C81.4366 0.287563 86.5942 5.50511 86.5942 11.6822V13.4214ZM75.1996 8.08389C77.1187 8.02392 78.7979 9.76311 78.7979 11.6822V12.2819H85.4547V11.6822C85.4547 6.10483 80.7769 1.42703 75.1996 1.42703H69.7421C64.1048 1.42703 59.487 6.10483 59.487 11.6822V32.4924C59.487 35.1911 60.5065 37.7699 62.4855 39.749C64.4046 41.6681 66.9834 42.7476 69.7421 42.7476H75.1996C77.8983 42.7476 80.5371 41.6681 82.4561 39.749C84.3752 37.7699 85.4547 35.1911 85.4547 32.4924V18.7589H73.5803V25.4157H78.7979V32.4924C78.7979 34.4715 77.1187 36.0907 75.1996 36.0907H69.7421C67.823 36.0907 66.0839 34.4715 66.0839 32.4924V11.6822C66.0839 9.70313 67.823 8.08389 69.7421 8.08389H75.1996V8.08389ZM124.958 14.3809H116.082V12.162C116.082 11.5023 115.842 10.9026 115.363 10.4228C114.943 9.94302 114.283 9.70313 113.623 9.70313H108.286C107.626 9.70313 106.967 9.94302 106.547 10.4228C106.067 10.9026 105.827 11.5023 105.827 12.162V15.5204C105.827 16.1801 106.067 16.8398 106.547 17.2596C106.967 17.7394 107.626 17.9792 108.286 17.9792H113.623C116.682 17.9792 119.501 19.1787 121.66 21.3377C123.759 23.4367 124.958 26.3153 124.958 29.3139V32.7323C124.958 35.7309 123.759 38.5496 121.66 40.7085C119.501 42.8675 116.682 44.007 113.623 44.007H108.286C105.227 44.007 102.409 42.8675 100.25 40.7085C98.0908 38.5496 96.9513 35.7309 96.9513 32.7323V30.5133H105.827V32.7323C105.827 33.392 106.067 33.9917 106.547 34.4715C106.967 34.8913 107.626 35.1911 108.286 35.1911H113.623C114.283 35.1911 114.943 34.8913 115.363 34.4715C115.842 33.9917 116.082 33.392 116.082 32.7323V29.3139C116.082 28.6542 115.842 28.0545 115.363 27.5747C114.943 27.0949 114.283 26.8551 113.623 26.8551H108.286C105.227 26.8551 102.409 25.6556 100.25 23.5566C98.0908 21.3976 96.9513 18.579 96.9513 15.5204V12.162C96.9513 9.10342 98.0908 6.28474 100.25 4.12576C102.409 2.02674 105.227 0.827309 108.286 0.827309H113.623C116.682 0.827309 119.501 2.02674 121.66 4.12576C123.759 6.28474 124.958 9.10342 124.958 12.162V14.3809V14.3809ZM113.623 8.56367C114.583 8.56367 115.483 8.9235 116.202 9.58319C116.862 10.3028 117.222 11.2024 117.222 12.162V13.2415H123.819V12.162C123.819 9.40327 122.739 6.88446 120.82 4.96536C118.901 3.04627 116.382 1.96677 113.623 1.96677H108.286C105.527 1.96677 103.008 3.04627 101.089 4.96536C99.1103 6.88446 98.0908 9.40327 98.0908 12.162V15.5204C98.0908 18.2791 99.1103 20.7979 101.089 22.717C103.008 24.6361 105.527 25.7156 108.286 25.7156H113.623C114.583 25.7156 115.483 26.0754 116.202 26.7951C116.862 27.4548 117.222 28.3544 117.222 29.3139V32.7323C117.222 33.6918 116.862 34.5914 116.202 35.2511C115.483 35.9108 114.583 36.3306 113.623 36.3306H108.286C107.266 36.3306 106.367 35.9108 105.707 35.2511C105.048 34.5914 104.688 33.6918 104.688 32.7323V31.6528H98.0908V32.7323C98.0908 35.431 99.1103 38.0098 101.089 39.9289C103.008 41.848 105.527 42.8675 108.286 42.8675H113.623C116.382 42.8675 118.901 41.848 120.82 39.9289C122.739 38.0098 123.819 35.431 123.819 32.7323V29.3139C123.819 26.6152 122.739 24.0364 120.82 22.1173C118.901 20.1982 116.382 19.1187 113.623 19.1187H108.286C107.266 19.1187 106.367 18.7589 105.707 18.0992C105.048 17.3795 104.688 16.4799 104.688 15.5204V12.162C104.688 11.2024 105.048 10.3028 105.707 9.58319C106.367 8.9235 107.266 8.56367 108.286 8.56367H113.623V8.56367ZM160.264 3.64598C162.423 5.80497 163.622 8.62364 163.622 11.6822V43.887H154.686V37.9498H144.251V43.887H135.315V11.6822C135.315 8.62364 136.515 5.80497 138.674 3.64598C140.833 1.487 143.711 0.287563 146.77 0.287563H152.227C155.226 0.287563 158.105 1.487 160.264 3.64598V3.64598ZM162.482 42.7476V11.6822C162.482 8.98347 161.403 6.40468 159.484 4.42562C157.505 2.50652 154.926 1.42703 152.227 1.42703H146.77C144.011 1.42703 141.432 2.50652 139.513 4.42562C137.534 6.40468 136.455 8.98347 136.455 11.6822V42.7476H143.112V36.8104H155.826V42.7476H162.482V42.7476ZM152.227 8.08389C153.187 8.08389 154.086 8.44373 154.746 9.16339C155.466 9.82308 155.826 10.7227 155.826 11.6822V30.1535H143.112V11.6822C143.112 10.7227 143.531 9.82308 144.191 9.16339C144.851 8.44373 145.81 8.08389 146.77 8.08389H152.227ZM154.686 29.014V11.6822C154.686 11.0225 154.386 10.4228 153.967 9.94302C153.487 9.46325 152.887 9.22336 152.227 9.22336H146.77C146.11 9.22336 145.451 9.46325 145.031 9.94302C144.551 10.4228 144.251 11.0225 144.251 11.6822V29.014H154.686V29.014ZM205.524 0.827309H214.34V32.5524C214.34 35.6109 213.141 38.4296 211.042 40.5286C208.883 42.6876 206.064 43.8271 203.065 43.8271H201.026C198.508 43.8271 196.109 43.0474 194.19 41.4882C192.211 43.0474 189.812 43.8271 187.353 43.8271H185.254C182.255 43.8271 179.437 42.6876 177.278 40.5286C175.179 38.4296 173.979 35.6109 173.979 32.5524V0.827309H182.855V32.5524C182.855 33.2121 183.095 33.8118 183.575 34.2916C183.994 34.7713 184.594 35.0112 185.254 35.0112H187.353C187.953 35.0112 188.612 34.7713 189.032 34.2916C189.452 33.8718 189.692 33.392 189.752 32.7923V32.5524V0.827309H198.568V32.5524V32.7923C198.627 33.392 198.867 33.8718 199.287 34.2916C199.767 34.7713 200.367 35.0112 201.026 35.0112H203.065C203.725 35.0112 204.325 34.7713 204.805 34.2916C205.224 33.8118 205.524 33.2121 205.524 32.5524V0.827309V0.827309ZM213.201 32.5524V1.96677H206.664V32.5524C206.664 33.5119 206.244 34.4115 205.584 35.1312C204.925 35.7909 204.025 36.1507 203.065 36.1507H201.026C200.067 36.1507 199.167 35.7909 198.508 35.1312C197.908 34.5314 197.548 33.7518 197.428 32.9122V32.8522V32.5524V1.96677H190.891V32.5524V32.8522V32.9122C190.831 33.7518 190.411 34.5314 189.872 35.1312C189.152 35.7909 188.252 36.1507 187.353 36.1507H185.254C184.294 36.1507 183.395 35.7909 182.735 35.1312C182.075 34.4115 181.715 33.5119 181.715 32.5524V1.96677H175.119V32.5524C175.119 35.2511 176.198 37.8299 178.117 39.749C180.036 41.6681 182.555 42.6876 185.254 42.6876H187.353C189.572 42.6876 191.671 41.9679 193.47 40.6486L194.19 40.1088L194.849 40.6486C196.648 41.9679 198.747 42.6876 201.026 42.6876H203.065C205.764 42.6876 208.283 41.6681 210.202 39.749C212.121 37.8299 213.201 35.2511 213.201 32.5524V32.5524Z" fill="white"/>
</svg>
