<svg width="364" height="69" viewBox="0 0 364 69" fill="none" xmlns="http://www.w3.org/2000/svg">
<path d="M23.1984 20.7524C23.2443 20.7564 23.2902 20.7584 23.335 20.7584C24.1001 20.7584 24.7524 20.1739 24.8232 19.3969C25.316 13.9509 26.5328 9.78258 27.2899 7.61117C28.7372 8.61658 31.0861 10.3721 33.6904 12.8088C34.2949 13.3723 35.2414 13.3414 35.805 12.738C36.3695 12.1355 36.3386 11.188 35.7352 10.6234C31.2297 6.40826 27.4864 4.15007 27.3288 4.05531C26.9607 3.83388 26.5149 3.785 26.1069 3.91367C25.698 4.04434 25.3638 4.34457 25.1913 4.73556C25.0865 4.97295 22.6099 10.6503 21.8429 19.1285C21.7691 19.9504 22.3765 20.6776 23.1984 20.7524Z" fill="white"/>
<path d="M76.5392 50.046C87.9219 37.1861 88.3748 19.3211 88.3887 18.567C88.3967 18.1251 88.2082 17.7012 87.8741 17.411C87.5399 17.1197 87.0931 16.993 86.6572 17.0619C86.1605 17.1407 74.3848 19.0986 63.397 27.9209C62.7527 28.4386 62.6489 29.3802 63.1666 30.0245C63.6843 30.6689 64.6269 30.7706 65.2702 30.2539C73.134 23.9402 81.6102 21.3199 85.2717 20.4182C84.8309 25.2688 82.8709 38.377 74.299 48.0621C67.1085 56.1842 57.8702 60.0134 51.9943 61.6272C56.4818 55.8491 60.8436 44.5811 60.8436 32.8104C60.8436 15.1218 48.0246 1.04904 47.48 0.458563C46.9134 -0.152864 45.8491 -0.152864 45.2826 0.458563C44.736 1.05004 31.917 15.1228 31.917 32.8114C31.917 44.4953 36.2149 55.6885 40.6665 61.5036C34.7716 59.8189 25.6321 55.9758 18.6272 48.0631C10.0752 38.401 8.10323 25.2837 7.65638 20.4242C11.283 21.3269 19.6236 23.9402 27.4894 30.2549C28.1337 30.7716 29.0763 30.6699 29.592 30.0255C30.1096 29.3812 30.0069 28.4386 29.3625 27.9219C18.3758 19.1016 6.76068 17.1427 6.27194 17.0639C5.83606 16.99 5.38821 17.1207 5.05307 17.411C4.71893 17.7012 4.52942 18.1251 4.5374 18.568C4.55136 19.322 5.0042 37.4365 16.3869 50.2964C27.6031 62.9668 44.2981 65.7686 46.5234 65.7686C48.7487 65.7686 65.1325 62.9319 76.5392 50.046ZM34.9093 33.0607C34.9093 19.4996 43.3177 7.7129 46.3808 3.91567C49.4459 7.70792 57.8503 19.5385 57.8503 33.1235C57.8503 50.2585 48.7886 62.1519 46.3838 63.1493C46.3808 63.1493 46.3758 63.1493 46.3718 63.1493C43.965 62.1519 34.9093 50.1887 34.9093 33.0607Z" fill="white"/>
<path d="M59.2347 12.8078C61.831 10.3781 64.185 8.61957 65.6353 7.61117C66.3913 9.78358 67.6092 13.9509 68.1019 19.3959C68.1727 20.1729 68.8251 20.7574 69.5901 20.7574C69.635 20.7574 69.6809 20.7554 69.7267 20.7514C70.5496 20.6766 71.1561 19.9494 71.0822 19.1266C70.3152 10.6484 67.8396 4.97196 67.7339 4.73357C67.5603 4.34158 67.2262 4.04235 66.8182 3.91168C66.4083 3.78301 65.9634 3.83189 65.5964 4.05332C65.4388 4.14807 61.6954 6.40627 57.19 10.6214C56.5865 11.186 56.5556 12.1335 57.1202 12.736C57.6857 13.3414 58.6313 13.3733 59.2347 12.8078Z" fill="white"/>
<path d="M35.4988 65.9272C29.4553 63.7797 20.8794 59.6693 14.3422 52.2843C13.5313 51.3676 12.7483 50.3921 11.9483 49.2989C11.6162 48.8441 11.0586 48.6187 10.4971 48.7055C4.89846 49.6291 1.05535 51.2968 0.894762 51.3666C0.46387 51.5551 0.147684 51.9352 0.0399606 52.393C-0.0677624 52.8508 0.0449479 53.3316 0.346173 53.6936C0.684304 54.0996 8.77051 63.6859 21.4888 67.0134C25.9164 68.1714 29.568 68.9424 32.9902 68.9434C32.9902 68.9434 32.9902 68.9434 32.9912 68.9434C33.7473 68.9434 34.4814 68.9025 35.1706 68.8237C35.8618 68.7439 36.4074 68.1983 36.4862 67.5071C36.565 66.8159 36.1541 66.1606 35.4988 65.9272Z" fill="white"/>
<path d="M92.7206 52.394C92.6129 51.9362 92.2957 51.5562 91.8658 51.3676C91.7042 51.2978 87.8621 49.6301 82.2635 48.7065C81.7039 48.6197 81.1454 48.8451 80.8122 49.3C80.0123 50.3931 79.2293 51.3686 78.4184 52.2853C71.8802 59.6693 63.3043 63.7797 57.2618 65.9282C56.6065 66.1606 56.1975 66.8159 56.2763 67.5071C56.3551 68.1984 56.8997 68.744 57.5919 68.8237C58.2812 68.9025 59.0143 68.9434 59.7723 68.9434C63.1945 68.9434 66.8451 68.1724 71.2738 67.0134C83.991 63.686 92.0782 54.1006 92.4164 53.6937C92.7156 53.3326 92.8283 52.8518 92.7206 52.394Z" fill="white"/>
<path d="M123.848 55.5492C122.064 55.5492 120.481 55.3124 119.098 54.8392C117.715 54.366 116.55 53.6108 115.603 52.5734C114.657 51.5361 113.957 50.1803 113.501 48.506C113.046 46.8316 112.855 44.8116 112.928 42.4457H116.204C116.204 43.6105 116.259 44.8207 116.368 46.0764C116.477 47.3321 116.768 48.4787 117.241 49.516C117.715 50.5534 118.433 51.3996 119.398 52.0548C120.362 52.7099 121.7 53.0375 123.411 53.0375C124.867 53.0375 126.104 52.8191 127.123 52.3823C128.142 51.9456 128.971 51.3632 129.607 50.6352C130.244 49.9073 130.69 49.0519 130.945 48.0692C131.2 47.0865 131.327 46.0673 131.327 45.0118C131.327 43.7742 131.1 42.6914 130.645 41.7633C130.19 40.8351 129.589 40.007 128.843 39.2791C128.097 38.5512 127.223 37.9052 126.223 37.3409C125.222 36.7767 124.175 36.2763 123.083 35.8395C121.336 35.148 119.807 34.4655 118.497 33.7922C117.187 33.1188 116.113 32.3636 115.276 31.5264C114.439 30.6891 113.811 29.7157 113.392 28.6055C112.974 27.4952 112.764 26.1396 112.764 24.538C112.764 20.8982 113.72 18.1868 115.631 16.4031C117.542 14.6194 120.281 13.7278 123.848 13.7278C126.941 13.7278 129.389 14.6287 131.191 16.4304C132.993 18.2321 133.893 20.9346 133.893 24.538V27.5408H130.836V24.265C130.836 23.1367 130.699 22.0902 130.427 21.1257C130.154 20.1613 129.726 19.3149 129.143 18.587C128.561 17.859 127.824 17.2857 126.932 16.8672C126.041 16.4486 124.976 16.2393 123.738 16.2393C120.827 16.2393 118.743 17.0036 117.487 18.5324C116.231 20.0611 115.658 22.1176 115.767 24.7018C115.804 25.8301 116.013 26.7948 116.395 27.5954C116.777 28.3961 117.287 29.0968 117.924 29.6974C118.561 30.298 119.325 30.8348 120.217 31.308C121.109 31.7812 122.1 32.2544 123.192 32.7275C124.466 33.2735 125.731 33.8559 126.987 34.4746C128.243 35.0934 129.416 35.8577 130.508 36.7677C131.6 37.714 132.501 38.8151 133.211 40.0708C133.921 41.3265 134.276 42.8825 134.276 44.7388C134.276 48.3422 133.357 51.0447 131.518 52.8464C129.68 54.6481 127.123 55.549 123.848 55.549L123.848 55.5492ZM149.017 55.5492C145.668 55.5492 143.075 54.6392 141.237 52.8193C139.399 50.9995 138.48 48.3061 138.48 44.739V14.1102H141.428V44.5752C141.428 45.4488 141.546 46.3678 141.783 47.3324C142.019 48.297 142.429 49.1705 143.011 49.953C143.594 50.7355 144.367 51.3815 145.332 51.8912C146.296 52.4009 147.488 52.6556 148.908 52.6556C150.473 52.6556 151.765 52.428 152.784 51.9731C153.803 51.5181 154.622 50.8903 155.241 50.0895C155.86 49.2887 156.296 48.3424 156.551 47.2505C156.806 46.1585 156.933 44.9938 156.933 43.7563V14.1102H159.827V44.739C159.827 48.3788 158.944 51.0903 157.179 52.8739C155.414 54.6576 152.693 55.5492 149.017 55.5492V55.5492ZM182.921 44.739C182.885 46.5589 182.712 48.1513 182.403 49.5162C182.094 50.8812 181.566 52.0095 180.82 52.9012C180.074 53.7929 179.091 54.4572 177.872 54.894C176.652 55.3308 175.114 55.5492 173.258 55.5492C170.055 55.5492 167.726 54.6574 166.27 52.8739C164.814 51.0904 164.086 48.3787 164.086 44.739V24.5382C164.086 20.8984 164.823 18.187 166.297 16.4033C167.771 14.6196 170.292 13.7281 173.859 13.7281C177.062 13.7281 179.355 14.6198 180.738 16.4033C182.121 18.1868 182.849 20.8985 182.922 24.5382L182.976 27.0497H180.465L180.41 23.8831C180.41 22.9731 180.319 22.0541 180.137 21.1259C179.955 20.1978 179.628 19.3515 179.155 18.5872C178.681 17.8228 178.017 17.2041 177.162 16.7309C176.306 16.2577 175.169 16.0211 173.749 16.0211C172.366 16.0211 171.211 16.2395 170.283 16.6763C169.354 17.1131 168.617 17.7136 168.071 18.478C167.525 19.2423 167.152 20.1432 166.952 21.1805C166.752 22.2179 166.652 23.3371 166.652 24.5382L166.761 45.012C166.761 47.5235 167.225 49.4889 168.153 50.9085C169.081 52.328 170.783 53.0377 173.258 53.0377C174.678 53.0377 175.851 52.8466 176.78 52.4645C177.708 52.0823 178.436 51.5454 178.963 50.8539C179.491 50.1623 179.864 49.3251 180.083 48.3424C180.301 47.3597 180.41 46.2859 180.41 45.1212L180.465 41.5724H182.976L182.921 44.739ZM198.591 55.5492C195.242 55.5492 192.648 54.6392 190.811 52.8193C188.973 50.9995 188.054 48.3061 188.054 44.739V14.1102H191.002V44.5752C191.002 45.4488 191.12 46.3678 191.357 47.3324C191.593 48.297 192.003 49.1705 192.585 49.953C193.168 50.7355 193.941 51.3815 194.905 51.8912C195.87 52.4009 197.062 52.6556 198.482 52.6556C200.047 52.6556 201.339 52.428 202.358 51.9731C203.377 51.5181 204.196 50.8903 204.815 50.0895C205.434 49.2887 205.87 48.3424 206.125 47.2505C206.38 46.1585 206.507 44.9938 206.507 43.7563V14.1102H209.401V44.739C209.401 48.3788 208.518 51.0903 206.753 52.8739C204.988 54.6576 202.267 55.5492 198.591 55.5492V55.5492ZM225.125 55.5492C223.341 55.5492 221.758 55.3124 220.375 54.8392C218.992 54.366 217.827 53.6108 216.88 52.5734C215.934 51.5361 215.234 50.1803 214.778 48.506C214.323 46.8316 214.132 44.8116 214.205 42.4457H217.481C217.481 43.6105 217.536 44.8207 217.645 46.0764C217.754 47.3321 218.045 48.4787 218.518 49.516C218.992 50.5534 219.71 51.3996 220.675 52.0548C221.639 52.7099 222.977 53.0375 224.688 53.0375C226.144 53.0375 227.381 52.8191 228.4 52.3823C229.419 51.9456 230.248 51.3632 230.884 50.6352C231.521 49.9073 231.967 49.0519 232.222 48.0692C232.477 47.0865 232.604 46.0673 232.604 45.0118C232.604 43.7742 232.377 42.6914 231.922 41.7633C231.467 40.8351 230.866 40.007 230.12 39.2791C229.374 38.5512 228.5 37.9052 227.5 37.3409C226.499 36.7767 225.452 36.2763 224.36 35.8395C222.613 35.148 221.084 34.4655 219.774 33.7922C218.464 33.1188 217.39 32.3636 216.553 31.5264C215.716 30.6891 215.088 29.7157 214.669 28.6055C214.251 27.4952 214.041 26.1396 214.041 24.538C214.041 20.8982 214.997 18.1868 216.908 16.4031C218.819 14.6194 221.558 13.7278 225.125 13.7278C228.218 13.7278 230.666 14.6287 232.468 16.4304C234.27 18.2321 235.17 20.9346 235.17 24.538V27.5408H232.113V24.265C232.113 23.1367 231.976 22.0902 231.703 21.1257C231.431 20.1613 231.003 19.3149 230.42 18.587C229.838 17.859 229.101 17.2857 228.209 16.8672C227.318 16.4486 226.253 16.2393 225.015 16.2393C222.104 16.2393 220.02 17.0036 218.764 18.5324C217.508 20.0611 216.935 22.1176 217.044 24.7018C217.081 25.8301 217.29 26.7948 217.672 27.5954C218.054 28.3961 218.564 29.0968 219.201 29.6974C219.838 30.298 220.602 30.8348 221.494 31.308C222.386 31.7812 223.377 32.2544 224.469 32.7275C225.743 33.2735 227.008 33.8559 228.264 34.4746C229.52 35.0934 230.693 35.8577 231.785 36.7677C232.877 37.714 233.778 38.8151 234.488 40.0708C235.198 41.3265 235.553 42.8825 235.553 44.7388C235.553 48.3422 234.634 51.0447 232.795 52.8464C230.957 54.6481 228.4 55.549 225.125 55.549L225.125 55.5492ZM248.656 55.0578V14.1102H251.604V52.1096H265.526V55.0578H248.656ZM289.986 55.0578L286.983 42.9919H273.661L270.658 55.0578H267.929L279.23 14.1102H281.578L292.825 55.0578H289.986V55.0578ZM280.486 16.6763L274.316 40.3713H286.273L280.486 16.6763ZM303.417 36.3311V55.0578H300.468V36.3311L290.586 14.1102H293.971L301.888 33.0553L309.914 14.1102H313.299L303.417 36.3311ZM335.356 46.7591C335.101 47.8874 334.728 48.9521 334.236 49.953C333.745 50.9539 333.099 51.8366 332.298 52.601C331.497 53.3653 330.524 53.9659 329.377 54.4026C328.231 54.8394 326.893 55.0578 325.364 55.0578H315.428V14.1102H324.982C327.749 14.1102 330.069 14.7563 331.943 16.0484C333.818 17.3406 335.028 19.5153 335.574 22.5727C335.683 23.1551 335.774 24.056 335.847 25.2753C335.92 26.4946 335.974 27.8959 336.011 29.4792C336.047 31.0625 336.065 32.7277 336.065 34.4748C336.065 36.2219 336.038 37.8963 335.984 39.4977C335.929 41.0992 335.847 42.546 335.738 43.8382C335.629 45.1303 335.501 46.1039 335.356 46.7591V46.7591ZM324.491 16.8947L318.158 16.8947V52.1096H325.255C326.238 52.1096 327.112 51.9367 327.876 51.591C328.64 51.2452 329.323 50.7902 329.923 50.2261C330.524 49.662 331.024 49.0341 331.425 48.3425C331.825 47.6509 332.153 46.9776 332.407 46.3224C332.589 45.8492 332.744 44.9939 332.871 43.7564C332.999 42.5189 333.09 41.1084 333.144 39.5251C333.199 37.9418 333.226 36.2585 333.226 34.4749C333.226 32.6914 333.199 31.0171 333.144 29.452C333.09 27.887 333.008 26.5038 332.899 25.3027C332.79 24.1016 332.662 23.2644 332.517 22.7912C332.298 22.1361 332.007 21.4536 331.643 20.7439C331.279 20.0341 330.797 19.3971 330.196 18.833C329.596 18.2688 328.831 17.8047 327.903 17.4407C326.975 17.0768 325.838 16.8948 324.491 16.8948L324.491 16.8947ZM360.361 55.0578L357.358 42.9919H344.037L341.034 55.0578H338.304L349.605 14.1102H351.953L363.2 55.0578H360.361V55.0578ZM350.861 16.6763L344.692 40.3713H356.648L350.861 16.6763Z" fill="white"/>
</svg>
